<svg
    xmlns="http://www.w3.org/2000/svg" viewBox="0 0 140 50" width="150" height="50">
    <svg t="1702067543009" class="icon" viewBox="0 0 1024 1024" version="1.1"
        xmlns="http://www.w3.org/2000/svg" p-id="10614"
        xmlns:xlink="http://www.w3.org/1999/xlink" width="40" height="40" x="0">
        <path d="M339.990641 809.096836A138.125997 138.125997 0 0 1 266.217638 954.28784a139.149911 139.149911 0 0 1-161.266454-25.341871 137.870019 137.870019 0 0 1-25.444263-160.703301 138.893933 138.893933 0 0 1 145.651766-73.517025c14.949144-15.921863 28.516005-31.331768 40.546994-46.07613a194.28768 194.28768 0 0 0-199.509641 46.07613 192.598222 192.598222 0 0 0 0 272.873079 194.338876 194.338876 0 0 0 273.794601 0 192.598222 192.598222 0 0 0 46.280912-198.792902c-14.795557 11.979794-30.307854 25.495458-46.280912 40.342212z m425.692242-167.461133c11.877402 14.846753 25.23948 30.307854 39.932645 46.332108a138.893933 138.893933 0 0 1 145.498178 73.670611 137.870019 137.870019 0 0 1-25.444262 160.60091 139.149911 139.149911 0 0 1-161.164062 25.444263 138.125997 138.125997 0 0 1-74.080178-144.88383 880.71962 880.71962 0 0 0-46.485695-39.779059 192.598222 192.598222 0 0 0 46.485695 197.768988 194.338876 194.338876 0 0 0 273.845797 0 192.649417 192.649417 0 0 0 0-272.770688 194.28768 194.28768 0 0 0-198.588118-46.383303zM693.445751 227.820863a138.125997 138.125997 0 0 1 73.875394-144.986221 139.149911 139.149911 0 0 1 161.266454 25.341871 137.870019 137.870019 0 0 1 25.444262 160.652105 138.893933 138.893933 0 0 1-145.498178 73.721808c-15.307514 16.485015-28.669592 31.894921-40.188624 46.178521a194.28768 194.28768 0 0 0 198.946489-46.280913 192.598222 192.598222 0 0 0 0-272.770687 194.338876 194.338876 0 0 0-273.794602 0 192.598222 192.598222 0 0 0-46.434499 198.280945c14.027622-11.263054 29.437527-24.52274 46.383304-40.137429zM257.360782 374.906108a1052.071626 1052.071626 0 0 0-41.263734-45.768956A138.893933 138.893933 0 0 1 70.035717 255.978498a137.870019 137.870019 0 0 1 25.290676-160.95928 139.149911 139.149911 0 0 1 161.573627-25.137088 138.125997 138.125997 0 0 1 73.414634 145.549374c15.71708 14.846753 31.126985 28.618396 45.922542 41.110147a192.598222 192.598222 0 0 0-45.820151-200.072794 194.338876 194.338876 0 0 0-273.794601 0 192.649417 192.649417 0 0 0 0 272.821883 194.390071 194.390071 0 0 0 200.687142 45.666564z m260.995676 85.24084a56.31527 56.31527 0 1 0-21.502194 108.381296c24.88111 10.23914 53.601897 1.535871 68.602238-20.785454a56.31527 56.31527 0 1 0-47.100044-87.544647v-0.051195z m270.569272 385.145247c3.174133 3.378916 11.058271 12.286968 12.747729 13.925231l0.819132 0.767935c0.409566 0.511957 0.870327 0.921523 1.433479 1.331088 19.249583 17.252951 46.946456 18.584039 63.124298 2.406198 15.205123-15.153927 15.00034-40.393407 0.614348-59.335815a170.225701 170.225701 0 0 0-12.286968-12.133381c-1.535871-1.382284-2.866959-2.559785-3.481307-3.020547-44.28428-40.854168-188.80974-180.720819-185.942781-262.633938 0.102391-3.430112 0-17.764908 0-21.91176-0.409566-82.220293 142.119262-220.090312 185.993976-260.58611l3.481308-3.071742c4.300439-3.788482 8.396095-7.832942 12.286968-12.133381 14.334796-18.942409 14.590774-44.181889-0.614349-59.28462-16.177841-16.126645-43.874715-14.846753-63.124297 2.406198a8.037725 8.037725 0 0 0-1.484675 1.279892l-0.819132 0.819131c-1.638262 1.638262-9.5224 10.495118-12.696533 13.92523-43.260366 46.127325-171.249615 175.550054-252.13882 181.642343-6.399462 0.511957-28.157635 0.409566-33.481988 0.204782-82.885838-3.276525-218.196072-142.119262-258.282304-185.328432a164.542978 164.542978 0 0 0-15.205123-15.71708c-19.0448-14.2836-44.386672-14.488383-59.540599 0.665544-16.177841 16.126645-14.949144 43.721127 2.406198 62.919515a8.703269 8.703269 0 0 0 1.279893 1.43348l0.819131 0.767935c1.638262 1.689458 10.546314 9.5224 13.976426 12.696534 45.052216 41.980474 169.457766 164.082217 181.539951 244.869031 1.279892 8.703269 1.228697 44.233084-1.126306 55.291355-17.252951 80.684423-136.487735 197.666596-180.464841 238.57196-3.430112 3.225329-12.338164 11.058271-13.976426 12.696534l-0.819131 0.819131a8.037725 8.037725 0 0 0-1.279892 1.433479c-17.355342 19.198387-18.68643 46.792869-2.457394 62.919515 15.205123 15.102731 40.546994 14.949144 59.540599 0.614348a167.409938 167.409938 0 0 0 12.235772-12.286967l3.020546-3.430112c39.16471-42.185256 169.0482-175.550054 252.292408-184.816476 7.474572-0.870327 34.04514-0.870327 40.956559-0.204782 81.042792 7.628159 207.700953 135.668604 250.654145 181.488754z m-208.468888-266.934377a88.056603 88.056603 0 0 1-95.735959 18.942409 87.544646 87.544646 0 0 1-54.267441-80.83801 87.544646 87.544646 0 0 1 54.267441-80.889205 88.056603 88.056603 0 0 1 121.692178 80.889205c0 23.242848-9.317617 45.564173-25.956219 61.946797z" fill="#6ECEFF" p-id="10615"></path>
    </svg>
    <svg width="100" height="50"
        xmlns="http://www.w3.org/2000/svg" x="50">
        <text x="50%" y="50%" font-size="24" fill="#6cc8fd" font-family="system-ui, sans-serif" text-anchor="middle" dominant-baseline="middle">Drotech</text>
    </svg>
</svg>